<svg xmlns="http://www.w3.org/2000/svg" width="100%" height="100%" viewBox="0 0 66 124" fill-rule="nonzero" stroke-linejoin="round" stroke-miterlimit="2"><path d="M7 49v25.6c0 14 11.5 25.6 25.6 25.6s25.6-11.5 25.6-25.6V49c0-14-11.5-25.6-25.6-25.6S7 35 7 49zm25.6-20a20 20 0 0 1 19.9 20v25.6a20 20 0 0 1-19.9 19.9 20 20 0 0 1-19.9-19.9V49a20 20 0 0 1 19.9-19.9zm0 24.3c1.6 0 2.8-1.3 2.8-2.8V42c0-1.6-1.3-2.8-2.8-2.8s-2.8 1.3-2.8 2.8v8.5c0 1.6 1.3 2.8 2.8 2.8zm-2 68.7c.6.6 1.3 1 2 1s1.4-.3 2-1l7-7c1-1 1-2.8 0-4s-2.8-1-4 0l-5 5-5-5c-1-1-2.8-1-4 0s-1 2.8 0 4l7 7zm0-120.5l-7 7c-1 1-1 2.8 0 4 .6.6 1.3 1 2 1s1.4-.3 2-1l5-5 5 5c.6.6 1.3 1 2 1s1.4-.3 2-1c1-1 1-2.8 0-4l-7-7c-1-1-2.8-1-4 0z"/></svg>