<svg xmlns="http://www.w3.org/2000/svg" xmlns:xlink="http://www.w3.org/1999/xlink" x="0px" y="0px" width="64px" height="64px" viewBox="0 0 64 64"><g stroke-width="2" transform="translate(0, 0)"><path data-color="color-2" data-stroke="none" fill="#444444" d="M25.9,44.4c0,0.8-0.3,1.5-0.9,2s-1.4,0.7-2.5,0.7c-1,0-1.9-0.2-2.6-0.6v-1.8
	c0.6,0.3,1.2,0.5,1.6,0.6c0.4,0.1,0.8,0.2,1.2,0.2c0.4,0,0.8-0.1,1-0.2c0.2-0.2,0.3-0.4,0.3-0.7c0-0.2-0.1-0.3-0.2-0.5
	s-0.2-0.3-0.4-0.4s-0.6-0.3-1.2-0.6c-0.6-0.3-1-0.5-1.3-0.8c-0.3-0.2-0.5-0.5-0.7-0.9c-0.2-0.3-0.3-0.7-0.3-1.1
	c0-0.8,0.3-1.5,0.8-1.9c0.6-0.5,1.3-0.7,2.3-0.7c0.5,0,0.9,0.1,1.4,0.2c0.4,0.1,0.9,0.3,1.4,0.5l-0.6,1.5c-0.5-0.2-0.9-0.3-1.2-0.4
	c-0.3-0.1-0.6-0.1-1-0.1c-0.4,0-0.7,0.1-0.9,0.3s-0.3,0.4-0.3,0.7c0,0.2,0,0.3,0.1,0.5s0.2,0.3,0.4,0.4c0.2,0.1,0.6,0.3,1.2,0.7
	c0.9,0.4,1.5,0.8,1.8,1.2S25.9,43.8,25.9,44.4z" stroke-linejoin="miter" stroke-linecap="square"></path>
<path data-color="color-2" data-stroke="none" fill="#444444" d="M33.1,37.7h2L31.9,47h-2.1l-3.1-9.3h2l1.7,5.5c0.1,0.3,0.2,0.7,0.3,1.1
	c0.1,0.4,0.2,0.7,0.2,0.9c0-0.4,0.2-1.1,0.5-2L33.1,37.7z" stroke-linejoin="miter" stroke-linecap="square"></path>
<path data-color="color-2" data-stroke="none" fill="#444444" d="M40,41.8h3.7v4.8c-0.6,0.2-1.2,0.3-1.7,0.4s-1.1,0.1-1.6,0.1
	c-1.4,0-2.5-0.4-3.2-1.2s-1.1-2-1.1-3.5c0-1.5,0.4-2.7,1.3-3.5s2-1.3,3.6-1.3c1,0,1.9,0.2,2.8,0.6l-0.7,1.6
	c-0.7-0.3-1.4-0.5-2.1-0.5c-0.9,0-1.5,0.3-2,0.9s-0.8,1.3-0.8,2.3c0,1,0.2,1.8,0.6,2.3c0.4,0.5,1,0.8,1.8,0.8c0.4,0,0.8,0,1.2-0.1
	v-1.9H40V41.8z" stroke-linejoin="miter" stroke-linecap="square"></path>
<polyline data-cap="butt" fill="none" stroke="#444444" stroke-width="2" stroke-miterlimit="10" points="40,2 40,18 56,18 " stroke-linejoin="miter" stroke-linecap="butt"></polyline>
<polyline fill="none" stroke="#444444" stroke-width="2" stroke-linecap="square" stroke-miterlimit="10" points="56,32 56,18 40,2 
	8,2 8,32 " stroke-linejoin="miter"></polyline>
<polyline fill="none" stroke="#444444" stroke-width="2" stroke-linecap="square" stroke-miterlimit="10" points="8,53 8,62 56,62 
	56,53 " stroke-linejoin="miter"></polyline>
<line data-cap="butt" fill="none" stroke="#444444" stroke-width="2" stroke-miterlimit="10" x1="61" y1="32" x2="3" y2="32" stroke-linejoin="miter" stroke-linecap="butt"></line>
<polyline data-cap="butt" fill="none" stroke="#444444" stroke-width="2" stroke-miterlimit="10" points="8,27 3,32 3,53 61,53 61,32 
	56,27 " stroke-linejoin="miter" stroke-linecap="butt"></polyline></g></svg>