<svg xmlns="http://www.w3.org/2000/svg" xmlns:xlink="http://www.w3.org/1999/xlink" x="0px" y="0px" width="64px" height="64px" viewBox="0 0 64 64"><g stroke-width="2" transform="translate(0, 0)"><path d="M30,39.3A28.973,28.973,0,0,1,25.8,3.6a29.35,29.35,0,0,0-14.3,7.8A29.062,29.062,0,0,0,52.6,52.5a26.255,26.255,0,0,0,4.2-5.4A29.4,29.4,0,0,1,30,39.3Z" fill="none" stroke="#444444" stroke-linecap="square" stroke-miterlimit="10" stroke-width="2" stroke-linejoin="miter"></path><path data-color="color-2" d="M46,32a6.243,6.243,0,0,0-8,0,6.243,6.243,0,0,0,0-8,6.243,6.243,0,0,0,8,0A6.243,6.243,0,0,0,46,32Z" fill="none" stroke="#444444" stroke-linecap="square" stroke-miterlimit="10" stroke-width="2" stroke-linejoin="miter"></path><path data-color="color-2" d="M56,15c-2.417-2.417-7.583-2.417-10,0,2.417-2.417,2.417-7.583,0-10,2.417,2.417,7.583,2.417,10,0C53.583,7.417,53.583,12.583,56,15Z" fill="none" stroke="#444444" stroke-linecap="square" stroke-miterlimit="10" stroke-width="2" stroke-linejoin="miter"></path></g></svg>