<svg xmlns="http://www.w3.org/2000/svg" xmlns:xlink="http://www.w3.org/1999/xlink" x="0px" y="0px" width="64px" height="64px" viewBox="0 0 64 64"><g stroke-width="2" transform="translate(0, 0)"><path data-color="color-2" data-stroke="none" fill="#444444" d="M26.9,40.6c0,1-0.3,1.8-0.9,2.3c-0.6,0.5-1.5,0.8-2.7,0.8h-0.8V47h-2v-9.3h3
	c1.1,0,2,0.2,2.6,0.7C26.6,38.9,26.9,39.7,26.9,40.6z M22.4,42.1h0.6c0.6,0,1.1-0.1,1.4-0.4s0.5-0.6,0.5-1c0-0.5-0.1-0.8-0.4-1
	c-0.3-0.2-0.6-0.3-1.2-0.3h-0.9V42.1z" stroke-linejoin="miter" stroke-linecap="square"></path>
<path data-color="color-2" data-stroke="none" fill="#444444" d="M36.6,42.3c0,1.5-0.4,2.7-1.3,3.5c-0.9,0.8-2.1,1.2-3.8,1.2h-2.6v-9.3h2.9
	c1.5,0,2.7,0.4,3.5,1.2C36.2,39.7,36.6,40.8,36.6,42.3z M34.5,42.3c0-2-0.9-3-2.6-3h-1v6h0.8C33.6,45.4,34.5,44.4,34.5,42.3z" stroke-linejoin="miter" stroke-linecap="square"></path>
<path data-color="color-2" data-stroke="none" fill="#444444" d="M40.7,47h-1.9v-9.3h5.3v1.6h-3.4v2.4h3.1v1.6h-3.1V47z" stroke-linejoin="miter" stroke-linecap="square"></path>
<polyline data-cap="butt" fill="none" stroke="#444444" stroke-width="2" stroke-miterlimit="10" points="40,2 40,18 56,18 " stroke-linejoin="miter" stroke-linecap="butt"></polyline>
<polyline fill="none" stroke="#444444" stroke-width="2" stroke-linecap="square" stroke-miterlimit="10" points="56,32 56,18 40,2 
	8,2 8,32 " stroke-linejoin="miter"></polyline>
<polyline fill="none" stroke="#444444" stroke-width="2" stroke-linecap="square" stroke-miterlimit="10" points="8,53 8,62 56,62 
	56,53 " stroke-linejoin="miter"></polyline>
<line data-cap="butt" fill="none" stroke="#444444" stroke-width="2" stroke-miterlimit="10" x1="61" y1="32" x2="3" y2="32" stroke-linejoin="miter" stroke-linecap="butt"></line>
<polyline data-cap="butt" fill="none" stroke="#444444" stroke-width="2" stroke-miterlimit="10" points="8,27 3,32 3,53 61,53 
	61,32 56,27 " stroke-linejoin="miter" stroke-linecap="butt"></polyline></g></svg>