<svg xmlns="http://www.w3.org/2000/svg" xmlns:xlink="http://www.w3.org/1999/xlink" x="0px" y="0px" width="64px" height="64px" viewBox="0 0 64 64"><g stroke-width="2" transform="translate(0, 0)"><path d="M56,58H8a5,5,0,0,1-5-5V6H24l6,10H61V53A5,5,0,0,1,56,58Z" fill="none" stroke="#444444" stroke-linecap="square" stroke-miterlimit="10" stroke-width="2" stroke-linejoin="miter"></path><line data-color="color-2" x1="43" y1="37" x2="21" y2="37" fill="none" stroke="#444444" stroke-linecap="square" stroke-miterlimit="10" stroke-width="2" stroke-linejoin="miter"></line><path data-color="color-2" d="M35,32V31a2,2,0,0,1,2-2H47a2,2,0,0,1,2,2V43a2,2,0,0,1-2,2H37a2,2,0,0,1-2-2V42" fill="none" stroke="#444444" stroke-linecap="square" stroke-miterlimit="10" stroke-width="2" stroke-linejoin="miter"></path><path data-color="color-2" d="M29,32V31a2,2,0,0,0-2-2H17a2,2,0,0,0-2,2V43a2,2,0,0,0,2,2H27a2,2,0,0,0,2-2V42" fill="none" stroke="#444444" stroke-linecap="square" stroke-miterlimit="10" stroke-width="2" stroke-linejoin="miter"></path></g></svg>